ffmpeg started on 2016-12-02 at 02:14:27
Report written to "Output/x264/results/ffmpeg/old_town_cross_2160p50slower3000k.log"
Command line:
Tools/ffmpeg/ffmpeg -benchmark -y -i Input/y4m/old_town_cross_2160p50.y4m -c:v libx264 -preset slower -b:v 3000k -an Output/x264/encoded/old_town_cross_2160p50slower3000k.mkv
ffmpeg version N-82227-gdb23fde Copyright (c) 2000-2016 the FFmpeg developers
  built with gcc 5.4.0 (Ubuntu 5.4.0-6ubuntu1~16.04.2) 20160609
  configuration: --prefix=/home/jaroslav/ffmpeg_build --pkg-config-flags=--static --extra-cflags=-I/home/jaroslav/ffmpeg_build/include --extra-ldflags=-L/home/jaroslav/ffmpeg_build/lib --bindir=/home/jaroslav/bin --enable-gpl --enable-libass --enable-libfdk-aac --enable-libfreetype --enable-libmp3lame --enable-libopus --enable-libtheora --enable-libvorbis --enable-libvpx --enable-libx264 --enable-libx265 --enable-nvenc --enable-libmfx --enable-libxvid --enable-libgsm --enable-libopencore-amrnb --enable-version3 --enable-nonfree
  libavutil      55. 35.100 / 55. 35.100
  libavcodec     57. 66.101 / 57. 66.101
  libavformat    57. 57.100 / 57. 57.100
  libavdevice    57.  2.100 / 57.  2.100
  libavfilter     6. 66.100 /  6. 66.100
  libswscale      4.  3.100 /  4.  3.100
  libswresample   2.  4.100 /  2.  4.100
  libpostproc    54.  2.100 / 54.  2.100
Input #0, yuv4mpegpipe, from 'Input/y4m/old_town_cross_2160p50.y4m':
  Duration: 00:00:10.00, start: 0.000000, bitrate: 4976642 kb/s
    Stream #0:0: Video: rawvideo (I420 / 0x30323449), yuv420p(progressive), 3840x2160, SAR 1:1 DAR 16:9, 50 fps, 50 tbr, 50 tbn, 50 tbc
[libx264 @ 0x32a2120] using SAR=1/1
[libx264 @ 0x32a2120] DPB size (8 frames, 259200 mbs) > level limit (5 frames, 184320 mbs)
[libx264 @ 0x32a2120] using cpu capabilities: MMX2 SSE2Fast SSSE3 SSE4.2 AVX FMA3 AVX2 LZCNT BMI2
[libx264 @ 0x32a2120] profile High, level 5.2
[libx264 @ 0x32a2120] 264 - core 148 - H.264/MPEG-4 AVC codec - Copyleft 2003-2016 - http://www.videolan.org/x264.html - options: cabac=1 ref=8 deblock=1:0:0 analyse=0x3:0x133 me=umh subme=9 psy=1 psy_rd=1.00:0.00 mixed_ref=1 me_range=16 chroma_me=1 trellis=2 8x8dct=1 cqm=0 deadzone=21,11 fast_pskip=1 chroma_qp_offset=-2 threads=6 lookahead_threads=1 sliced_threads=0 nr=0 decimate=1 interlaced=0 bluray_compat=0 constrained_intra=0 bframes=3 b_pyramid=2 b_adapt=2 b_bias=0 direct=3 weightb=1 open_gop=0 weightp=2 keyint=250 keyint_min=25 scenecut=40 intra_refresh=0 rc_lookahead=60 rc=abr mbtree=1 bitrate=3000 ratetol=1.0 qcomp=0.60 qpmin=0 qpmax=69 qpstep=4 ip_ratio=1.40 aq=1:1.00
Output #0, matroska, to 'Output/x264/encoded/old_town_cross_2160p50slower3000k.mkv':
  Metadata:
    encoder         : Lavf57.57.100
    Stream #0:0: Video: h264 (libx264) (H264 / 0x34363248), yuv420p, 3840x2160 [SAR 1:1 DAR 16:9], q=-1--1, 3000 kb/s, 50 fps, 1k tbn, 50 tbc
    Metadata:
      encoder         : Lavc57.66.101 libx264
    Side data:
      cpb: bitrate max/min/avg: 0/0/3000000 buffer size: 0 vbv_delay: -1
Stream mapping:
  Stream #0:0 -> #0:0 (rawvideo (native) -> h264 (libx264))
Press [q] to stop, [?] for help
frame=   62 fps=0.0 q=0.0 size=       0kB time=00:00:00.00 bitrate=N/A speed=   0x    frame=   67 fps= 17 q=0.0 size=       0kB time=00:00:00.00 bitrate=N/A speed=   0x    frame=   75 fps= 15 q=47.0 size=       1kB time=00:00:00.04 bitrate= 143.6kbits/s speed=0.00845x    frame=   81 fps= 15 q=47.0 size=       1kB time=00:00:00.16 bitrate=  36.6kbits/s speed=0.0299x    frame=   84 fps= 14 q=48.0 size=       1kB time=00:00:00.22 bitrate=  26.6kbits/s speed=0.0358x    frame=   88 fps= 13 q=47.0 size=       1kB time=00:00:00.30 bitrate=  19.6kbits/s speed=0.0437x    frame=   93 fps= 12 q=46.0 size=       1kB time=00:00:00.40 bitrate=  14.7kbits/s speed=0.0533x    frame=   97 fps= 12 q=46.0 size=       1kB time=00:00:00.48 bitrate=  12.2kbits/s speed=0.059x    frame=  100 fps= 11 q=45.0 size=       1kB time=00:00:00.54 bitrate=  10.9kbits/s speed=0.061x    frame=  105 fps= 11 q=45.0 size=       1kB time=00:00:00.64 bitrate=   9.2kbits/s speed=0.0684x    frame=  107 fps= 11 q=45.0 size=       1kB time=00:00:00.68 bitrate=   8.6kbits/s speed=0.0674x    frame=  112 fps= 11 q=45.0 size=       1kB time=00:00:00.78 bitrate=   7.5kbits/s speed=0.0735x    frame=  115 fps= 10 q=44.0 size=       1kB time=00:00:00.84 bitrate=   7.0kbits/s speed=0.0741x    frame=  119 fps= 10 q=44.0 size=       1kB time=00:00:00.92 bitrate=   6.4kbits/s speed=0.0773x    frame=  122 fps=9.7 q=44.0 size=       1kB time=00:00:00.98 bitrate=   6.0kbits/s speed=0.078x    frame=  126 fps=9.5 q=44.0 size=       1kB time=00:00:01.06 bitrate=   5.5kbits/s speed=0.0799x    frame=  130 fps=9.3 q=44.0 size=       1kB time=00:00:01.14 bitrate=   5.2kbits/s speed=0.082x    frame=  134 fps=9.1 q=44.0 size=       1kB time=00:00:01.22 bitrate=   4.8kbits/s speed=0.0831x    frame=  138 fps=8.9 q=44.0 size=       1kB time=00:00:01.30 bitrate=   4.5kbits/s speed=0.0841x    frame=  142 fps=8.8 q=44.0 size=       1kB time=00:00:01.38 bitrate=   4.3kbits/s speed=0.0859x    frame=  146 fps=8.7 q=44.0 size=       1kB time=00:00:01.46 bitrate=   4.0kbits/s speed=0.0867x    frame=  150 fps=8.5 q=43.0 size=       1kB time=00:00:01.54 bitrate=   3.8kbits/s speed=0.0878x    frame=  154 fps=8.4 q=43.0 size=       1kB time=00:00:01.62 bitrate=   3.6kbits/s speed=0.0888x    frame=  158 fps=8.4 q=43.0 size=       1kB time=00:00:01.70 bitrate=   3.5kbits/s speed=0.0901x    frame=  162 fps=8.2 q=43.0 size=       1kB time=00:00:01.78 bitrate=   3.3kbits/s speed=0.0906x    frame=  165 fps=8.2 q=43.0 size=       1kB time=00:00:01.84 bitrate=   3.2kbits/s speed=0.0913x    frame=  169 fps=8.1 q=43.0 size=       1kB time=00:00:01.92 bitrate=   3.1kbits/s speed=0.0917x    frame=  173 fps=8.0 q=43.0 size=       1kB time=00:00:02.00 bitrate=   2.9kbits/s speed=0.0925x    frame=  177 fps=7.9 q=43.0 size=       1kB time=00:00:02.08 bitrate=   2.8kbits/s speed=0.0934x    frame=  180 fps=7.9 q=43.0 size=       1kB time=00:00:02.14 bitrate=   2.8kbits/s speed=0.0935x    frame=  184 fps=7.8 q=43.0 size=       1kB time=00:00:02.22 bitrate=   2.7kbits/s speed=0.094x    frame=  188 fps=7.7 q=43.0 size=       1kB time=00:00:02.30 bitrate=   2.6kbits/s speed=0.0945x    frame=  192 fps=7.6 q=43.0 size=       1kB time=00:00:02.38 bitrate=   2.5kbits/s speed=0.0949x    frame=  196 fps=7.6 q=43.0 size=       1kB time=00:00:02.46 bitrate=   2.4kbits/s speed=0.0958x    frame=  199 fps=7.5 q=43.0 size=       1kB time=00:00:02.52 bitrate=   2.3kbits/s speed=0.0954x    frame=  204 fps=7.5 q=43.0 size=       1kB time=00:00:02.62 bitrate=   2.2kbits/s speed=0.0962x    frame=  208 fps=7.5 q=43.0 size=       1kB time=00:00:02.70 bitrate=   2.2kbits/s speed=0.0968x    frame=  211 fps=7.4 q=43.0 size=       1kB time=00:00:02.76 bitrate=   2.1kbits/s speed=0.097x    frame=  215 fps=7.3 q=43.0 size=       1kB time=00:00:02.84 bitrate=   2.1kbits/s speed=0.097x    frame=  219 fps=7.3 q=43.0 size=       1kB time=00:00:02.92 bitrate=   2.0kbits/s speed=0.0978x    frame=  223 fps=7.3 q=43.0 size=       1kB time=00:00:03.00 bitrate=   2.0kbits/s speed=0.0977x    frame=  227 fps=7.2 q=43.0 size=       1kB time=00:00:03.08 bitrate=   1.9kbits/s speed=0.0982x    frame=  231 fps=7.2 q=43.0 size=       1kB time=00:00:03.16 bitrate=   1.9kbits/s speed=0.0982x    frame=  235 fps=7.2 q=43.0 size=       1kB time=00:00:03.24 bitrate=   1.8kbits/s speed=0.099x    frame=  239 fps=7.2 q=43.0 size=       1kB time=00:00:03.32 bitrate=   1.8kbits/s speed=0.0996x    frame=  243 fps=7.1 q=43.0 size=       1kB time=00:00:03.40 bitrate=   1.7kbits/s speed=0.0993x    frame=  248 fps=7.1 q=43.0 size=       1kB time=00:00:03.50 bitrate=   1.7kbits/s speed=0.101x    frame=  250 fps=7.0 q=43.0 size=       1kB time=00:00:03.54 bitrate=   1.7kbits/s speed=0.0995x    frame=  255 fps=7.0 q=43.0 size=       1kB time=00:00:03.64 bitrate=   1.6kbits/s speed=0.101x    frame=  258 fps=7.0 q=43.0 size=       1kB time=00:00:03.70 bitrate=   1.6kbits/s speed=0.101x    frame=  262 fps=6.9 q=43.0 size=       1kB time=00:00:03.78 bitrate=   1.6kbits/s speed= 0.1x    frame=  267 fps=7.0 q=43.0 size=       1kB time=00:00:03.88 bitrate=   1.5kbits/s speed=0.101x    frame=  270 fps=6.9 q=43.0 size=       1kB time=00:00:03.94 bitrate=   1.5kbits/s speed=0.101x    frame=  274 fps=6.9 q=42.0 size=       1kB time=00:00:04.02 bitrate=   1.5kbits/s speed=0.101x    frame=  278 fps=6.8 q=42.0 size=       1kB time=00:00:04.10 bitrate=   1.4kbits/s speed=0.101x    frame=  284 fps=6.9 q=42.0 size=       1kB time=00:00:04.22 bitrate=   1.4kbits/s speed=0.103x    frame=  285 fps=6.8 q=42.0 size=       1kB time=00:00:04.24 bitrate=   1.4kbits/s speed=0.101x    frame=  291 fps=6.8 q=42.0 size=       1kB time=00:00:04.36 bitrate=   1.4kbits/s speed=0.102x    frame=  297 fps=6.8 q=42.0 size=       1kB time=00:00:04.48 bitrate=   1.3kbits/s speed=0.102x    frame=  303 fps=6.7 q=42.0 size=       1kB time=00:00:04.60 bitrate=   1.3kbits/s speed=0.102x    frame=  307 fps=6.8 q=42.0 size=       1kB time=00:00:04.68 bitrate=   1.3kbits/s speed=0.103x    frame=  309 fps=6.7 q=42.0 size=       1kB time=00:00:04.72 bitrate=   1.2kbits/s speed=0.103x    frame=  313 fps=6.7 q=42.0 size=       1kB time=00:00:04.80 bitrate=   1.2kbits/s speed=0.103x    frame=  315 fps=6.7 q=39.0 size=       1kB time=00:00:04.84 bitrate=   1.2kbits/s speed=0.103x    frame=  321 fps=6.7 q=43.0 size=    1684kB time=00:00:04.96 bitrate=2780.5kbits/s speed=0.104x    frame=  327 fps=6.8 q=43.0 size=    1684kB time=00:00:05.08 bitrate=2714.8kbits/s speed=0.105x    frame=  331 fps=6.7 q=43.0 size=    1684kB time=00:00:05.16 bitrate=2672.7kbits/s speed=0.105x    frame=  336 fps=6.7 q=43.0 size=    1684kB time=00:00:05.26 bitrate=2621.9kbits/s speed=0.105x    frame=  337 fps=6.7 q=43.0 size=    1684kB time=00:00:05.28 bitrate=2612.0kbits/s speed=0.105x    frame=  340 fps=6.7 q=43.0 size=    1684kB time=00:00:05.34 bitrate=2582.7kbits/s speed=0.105x    frame=  345 fps=6.7 q=43.0 size=    1684kB time=00:00:05.44 bitrate=2535.2kbits/s speed=0.106x    frame=  347 fps=6.7 q=43.0 size=    1684kB time=00:00:05.48 bitrate=2516.7kbits/s speed=0.105x    frame=  351 fps=6.7 q=43.0 size=    1684kB time=00:00:05.56 bitrate=2480.5kbits/s speed=0.105x    frame=  354 fps=6.6 q=43.0 size=    1684kB time=00:00:05.62 bitrate=2454.0kbits/s speed=0.105x    frame=  360 fps=6.6 q=43.0 size=    1684kB time=00:00:05.74 bitrate=2402.7kbits/s speed=0.105x    frame=  364 fps=6.6 q=43.0 size=    1684kB time=00:00:05.82 bitrate=2369.7kbits/s speed=0.106x    frame=  368 fps=6.6 q=43.0 size=    1684kB time=00:00:05.90 bitrate=2337.6kbits/s speed=0.106x    frame=  373 fps=6.6 q=43.0 size=    1684kB time=00:00:06.00 bitrate=2298.6kbits/s speed=0.106x    frame=  375 fps=6.6 q=43.0 size=    1684kB time=00:00:06.04 bitrate=2283.4kbits/s speed=0.106x    frame=  380 fps=6.6 q=43.0 size=    1684kB time=00:00:06.14 bitrate=2246.2kbits/s speed=0.106x    frame=  383 fps=6.5 q=43.0 size=    1684kB time=00:00:06.20 bitrate=2224.5kbits/s speed=0.106x    frame=  387 fps=6.5 q=43.0 size=    1684kB time=00:00:06.28 bitrate=2196.1kbits/s speed=0.106x    frame=  391 fps=6.5 q=43.0 size=    1684kB time=00:00:06.36 bitrate=2168.5kbits/s speed=0.106x    frame=  395 fps=6.5 q=43.0 size=    1684kB time=00:00:06.44 bitrate=2141.6kbits/s speed=0.106x    frame=  400 fps=6.5 q=43.0 size=    1684kB time=00:00:06.54 bitrate=2108.8kbits/s speed=0.106x    frame=  403 fps=6.5 q=43.0 size=    1684kB time=00:00:06.60 bitrate=2089.7kbits/s speed=0.106x    frame=  407 fps=6.5 q=43.0 size=    1684kB time=00:00:06.68 bitrate=2064.7kbits/s speed=0.106x    frame=  409 fps=6.4 q=43.0 size=    1684kB time=00:00:06.72 bitrate=2052.4kbits/s speed=0.106x    frame=  414 fps=6.4 q=43.0 size=    1684kB time=00:00:06.82 bitrate=2022.3kbits/s speed=0.106x    frame=  418 fps=6.4 q=43.0 size=    1684kB time=00:00:06.90 bitrate=1998.8kbits/s speed=0.106x    frame=  422 fps=6.4 q=43.0 size=    1684kB time=00:00:06.98 bitrate=1975.9kbits/s speed=0.106x    frame=  426 fps=6.4 q=43.0 size=    1684kB time=00:00:07.06 bitrate=1953.5kbits/s speed=0.106x    frame=  430 fps=6.4 q=43.0 size=    1684kB time=00:00:07.14 bitrate=1931.7kbits/s speed=0.106x    frame=  434 fps=6.4 q=43.0 size=    1684kB time=00:00:07.22 bitrate=1910.3kbits/s speed=0.106x    frame=  439 fps=6.4 q=43.0 size=    1684kB time=00:00:07.32 bitrate=1884.2kbits/s speed=0.106x    frame=  443 fps=6.3 q=43.0 size=    1684kB time=00:00:07.40 bitrate=1863.8kbits/s speed=0.106x    frame=  446 fps=6.3 q=43.0 size=    1684kB time=00:00:07.46 bitrate=1848.8kbits/s speed=0.106x    frame=  450 fps=6.3 q=43.0 size=    1684kB time=00:00:07.54 bitrate=1829.2kbits/s speed=0.106x    frame=  453 fps=6.3 q=43.0 size=    1684kB time=00:00:07.60 bitrate=1814.8kbits/s speed=0.106x    frame=  458 fps=6.3 q=43.0 size=    1684kB time=00:00:07.70 bitrate=1791.2kbits/s speed=0.107x    frame=  460 fps=6.3 q=43.0 size=    1684kB time=00:00:07.74 bitrate=1781.9kbits/s speed=0.106x    frame=  463 fps=6.3 q=43.0 size=    1684kB time=00:00:07.80 bitrate=1768.2kbits/s speed=0.106x    frame=  467 fps=6.3 q=43.0 size=    1684kB time=00:00:07.88 bitrate=1750.3kbits/s speed=0.106x    frame=  471 fps=6.3 q=43.0 size=    1684kB time=00:00:07.96 bitrate=1732.7kbits/s speed=0.106x    frame=  475 fps=6.3 q=43.0 size=    1684kB time=00:00:08.04 bitrate=1715.5kbits/s speed=0.106x    frame=  479 fps=6.3 q=43.0 size=    1684kB time=00:00:08.12 bitrate=1698.6kbits/s speed=0.106x    frame=  483 fps=6.3 q=43.0 size=    1684kB time=00:00:08.20 bitrate=1682.0kbits/s speed=0.106x    frame=  487 fps=6.2 q=43.0 size=    1684kB time=00:00:08.28 bitrate=1665.7kbits/s speed=0.106x    frame=  491 fps=6.2 q=43.0 size=    1684kB time=00:00:08.36 bitrate=1649.8kbits/s speed=0.106x    frame=  495 fps=6.2 q=43.0 size=    1684kB time=00:00:08.44 bitrate=1634.2kbits/s speed=0.106x    frame=  499 fps=6.2 q=43.0 size=    1684kB time=00:00:08.52 bitrate=1618.8kbits/s speed=0.106x    frame=  500 fps=5.5 q=-1.0 Lsize=    3684kB time=00:00:09.94 bitrate=3035.8kbits/s speed=0.109x    
video:3680kB audio:0kB subtitle:0kB other streams:0kB global headers:0kB muxing overhead: 0.115872%
bench: utime=348.500s
bench: maxrss=2604708kB
[libx264 @ 0x32a2120] frame I:3     Avg QP:39.34  size: 93030
[libx264 @ 0x32a2120] frame P:138   Avg QP:41.31  size: 10537
[libx264 @ 0x32a2120] frame B:359   Avg QP:43.31  size:  5666
[libx264 @ 0x32a2120] consecutive B-frames:  1.0%  2.0% 23.4% 73.6%
[libx264 @ 0x32a2120] mb I  I16..4: 28.9% 68.6%  2.5%
[libx264 @ 0x32a2120] mb P  I16..4:  0.1%  0.1%  0.0%  P16..4: 13.7%  0.2%  3.6%  0.0%  0.0%    skip:82.3%
[libx264 @ 0x32a2120] mb B  I16..4:  0.0%  0.0%  0.0%  B16..8: 28.0%  0.0%  0.0%  direct: 0.0%  skip:71.9%  L0:44.0% L1:56.0% BI: 0.0%
[libx264 @ 0x32a2120] final ratefactor: 35.26
[libx264 @ 0x32a2120] 8x8 transform intra:66.1% inter:90.1%
[libx264 @ 0x32a2120] direct mvs  spatial:98.9% temporal:1.1%
[libx264 @ 0x32a2120] coded y,uvDC,uvAC intra: 25.6% 25.4% 3.7% inter: 0.3% 0.5% 0.0%
[libx264 @ 0x32a2120] i16 v,h,dc,p: 16% 29%  2% 53%
[libx264 @ 0x32a2120] i8 v,h,dc,ddl,ddr,vr,hd,vl,hu: 13%  3% 29%  8% 13%  7% 13%  5%  9%
[libx264 @ 0x32a2120] i4 v,h,dc,ddl,ddr,vr,hd,vl,hu:  4%  5%  3% 13% 18% 12% 20%  8% 17%
[libx264 @ 0x32a2120] i8c dc,h,v,p: 21% 65%  8%  6%
[libx264 @ 0x32a2120] Weighted P-Frames: Y:0.7% UV:0.0%
[libx264 @ 0x32a2120] ref P L0: 76.3% 11.1%  8.0%  1.3%  1.1%  1.0%  0.9%  0.4%  0.0%
[libx264 @ 0x32a2120] ref B L0: 92.6%  5.3%  1.5%  0.3%  0.2%  0.1%  0.1%
[libx264 @ 0x32a2120] ref B L1: 98.7%  1.3%
[libx264 @ 0x32a2120] kb/s:3013.80
